<?xml version="1.0" encoding="utf-8"?>
<!-- Generator: Adobe Illustrator 23.1.1, SVG Export Plug-In . SVG Version: 6.00 Build 0)  -->
<svg version="1.1" id="Layer_1" xmlns="http://www.w3.org/2000/svg" xmlns:xlink="http://www.w3.org/1999/xlink" x="0px" y="0px"
	 viewBox="0 0 35 35" style="enable-background:new 0 0 35 35;" xml:space="preserve">
<style type="text/css">
	.st0{fill:#AEE4FE;}
	.st1{fill:#FDDF76;}
	.st2{fill:#FF8A81;}
	.st3{fill:#97DACC;}
	.st4{fill:#FFD0BE;}
	.st5{fill:#A493CB;}
	.st6{fill:#9ED676;}
</style>
<g>
	<rect x="13.42" y="6.8" class="st5" width="8.39" height="1.14"/>
	<path class="st5" d="M11.13,28.2h8.39V12.42h-8.39V28.2z M12.53,13.56h5.6c0.28,0,0.5,0.23,0.5,0.5s-0.23,0.5-0.5,0.5h-5.6
		c-0.28,0-0.5-0.23-0.5-0.5S12.26,13.56,12.53,13.56z M12.53,15.56h5.6c0.28,0,0.5,0.23,0.5,0.5c0,0.28-0.23,0.5-0.5,0.5h-5.6
		c-0.28,0-0.5-0.23-0.5-0.5C12.03,15.78,12.26,15.56,12.53,15.56z M12.53,17.56h5.6c0.28,0,0.5,0.23,0.5,0.5
		c0,0.28-0.23,0.5-0.5,0.5h-5.6c-0.28,0-0.5-0.23-0.5-0.5C12.03,17.78,12.26,17.56,12.53,17.56z"/>
	<polygon class="st5" points="13.19,8.95 11.56,11.42 19.76,11.42 21.38,8.95 	"/>
	<path class="st5" d="M17.47,0.25c-9.52,0-17.22,7.64-17.22,17.22c0,9.52,7.7,17.28,17.22,17.28c9.58,0,17.28-7.76,17.28-17.28
		C34.75,7.89,27.05,0.25,17.47,0.25z M24.87,28.7c0,0.28-0.23,0.5-0.5,0.5h-4.34h-9.4c-0.28,0-0.5-0.23-0.5-0.5V11.92
		c0-0.07,0.03-0.17,0.09-0.28c0,0,2.2-3.35,2.2-3.35v-2c0-0.28,0.23-0.5,0.5-0.5h9.4c0.28,0,0.5,0.23,0.5,0.5v2.01l1.98,3.36
		c0.04,0.06,0.07,0.17,0.07,0.26V28.7z"/>
	<polygon class="st5" points="20.54,12.07 20.54,28.2 23.86,28.2 23.86,12.06 22.29,9.4 	"/>
</g>
</svg>
