<?xml version="1.0" encoding="utf-8"?>
<!-- Generator: Adobe Illustrator 23.1.1, SVG Export Plug-In . SVG Version: 6.00 Build 0)  -->
<svg version="1.1" id="Layer_1" xmlns="http://www.w3.org/2000/svg" xmlns:xlink="http://www.w3.org/1999/xlink" x="0px" y="0px"
	 viewBox="0 0 35 35" style="enable-background:new 0 0 35 35;" xml:space="preserve">
<style type="text/css">
	.st0{fill:#AEE4FE;}
	.st1{fill:#FDDF76;}
	.st2{fill:#FF8A81;}
	.st3{fill:#97DACC;}
	.st4{fill:#FFD0BE;}
	.st5{fill:#A493CB;}
	.st6{fill:#9ED676;}
</style>
<g>
	<path class="st6" d="M16.99,7.67c-0.27,0.18-0.53,0.37-0.77,0.6c0,0,0.24,0.04,0.63,0.14C16.9,8.17,16.95,7.92,16.99,7.67z"/>
	<path class="st6" d="M21.49,10.72c0.2-0.86,0.35-1.86,0.38-2.98c-0.17-0.11-0.34-0.2-0.51-0.29c-0.01,0.03-0.31,1.02-0.97,2.54
		C20.75,10.21,21.11,10.44,21.49,10.72z"/>
	<path class="st6" d="M19.24,9.36c0.2,0.1,0.4,0.21,0.62,0.33c0.31-0.83,0.57-1.68,0.77-2.55c-0.33-0.11-0.65-0.17-0.96-0.2
		C19.81,7.59,19.64,8.41,19.24,9.36z"/>
	<path class="st6" d="M19.03,7.02l0-0.09c-0.5,0.04-0.97,0.17-1.42,0.39c0,0.06,0.02,0.5-0.17,1.27c0.33,0.11,0.73,0.26,1.17,0.46
		C19.1,8.02,19.28,7.27,19.03,7.02z"/>
	<path class="st6" d="M22.84,11.79c0.45-0.89,1.1-2.31-0.13-3.44c-0.13-0.11-0.26-0.2-0.38-0.3c0,0.03,0.1,1.44-0.28,3.08
		C22.31,11.35,22.57,11.56,22.84,11.79z"/>
	<path class="st6" d="M18.64,12.35c0.38-0.71,0.72-1.44,1.03-2.19c-0.2-0.11-0.43-0.21-0.65-0.32c-0.3,0.62-0.68,1.29-1.12,1.98
		C18.14,11.97,18.39,12.15,18.64,12.35z"/>
	<path class="st6" d="M17.29,9.13c-0.17,0.54-0.42,1.2-0.81,1.95c0.24,0.09,0.51,0.21,0.78,0.36c0.43-0.69,0.8-1.33,1.1-1.9
		C18.02,9.4,17.67,9.26,17.29,9.13z"/>
	<path class="st6" d="M20.19,10.47c-0.3,0.68-0.67,1.45-1.1,2.27c0.38,0.35,0.78,0.75,1.19,1.22c0.28-0.51,0.73-1.44,1.08-2.72
		C21.03,11,20.63,10.73,20.19,10.47z"/>
	<path class="st6" d="M15.9,10.91c0.33-0.64,0.61-1.29,0.8-1.95c-0.31-0.08-0.63-0.16-0.96-0.22c-0.57,0.62-1.08,1.34-1.54,2.1
		C14.22,10.84,14.86,10.65,15.9,10.91z"/>
	<path class="st6" d="M22.57,12.24c-0.01-0.01-0.25-0.24-0.65-0.58c-0.22,0.74-0.54,1.49-1.01,2.17
		C21.54,13.36,22.15,12.85,22.57,12.24z"/>
	<path class="st6" d="M10.9,17.15c-0.87-0.36-1.87-0.59-3.02-0.57c-0.56,0.55-1.01,1.2-1.35,1.96c0.04,0.01,0.93,0.17,2.08,0.63
		C9.31,18.59,10.1,17.91,10.9,17.15z"/>
	<path class="st6" d="M11.49,17.42c-0.68,0.65-1.44,1.32-2.28,2.01c0.39,0.18,0.81,0.41,1.21,0.66c0.65-0.65,1.31-1.37,1.96-2.12
		C12.1,17.78,11.81,17.59,11.49,17.42z"/>
	<path class="st6" d="M11.71,21.07c0.61-0.57,1.28-1.22,1.96-1.95c-0.26-0.29-0.57-0.58-0.91-0.85c-0.68,0.74-1.36,1.45-1.98,2.08
		C11.1,20.56,11.41,20.8,11.71,21.07z"/>
	<path class="st6" d="M12.28,21.65c0.31,0.35,0.6,0.74,0.84,1.18c0.47-0.24,0.96-0.56,1.5-0.99c0.14-0.12,0.27-0.24,0.39-0.38
		c0.1-0.07-0.17-0.81-0.82-1.7C13.6,20.42,12.96,21.05,12.28,21.65z"/>
	<path class="st6" d="M6.34,19C6.34,19,6.34,19,6.34,19c-0.24,0.66-0.39,1.4-0.46,2.23c0.05-0.03,1-0.68,2.34-1.75
		C7.65,19.28,7.03,19.11,6.34,19z"/>
	<path class="st6" d="M9.63,23.65c1.1-0.09,2.01-0.19,2.99-0.59c-0.04-0.09-0.27-0.52-0.73-1.07C11.18,22.58,10.43,23.14,9.63,23.65
		z"/>
	<path class="st6" d="M8.84,19.73c-0.9,0.72-1.88,1.47-2.97,2.23c-0.01,0.01-0.02,0.01-0.02,0.02c0,0.15-0.01,0.29-0.01,0.44
		c0.24,0.27,0.55,0.49,0.88,0.68c1-0.54,2.17-1.5,3.38-2.69C9.73,20.17,9.32,19.94,8.84,19.73z"/>
	<path class="st6" d="M10.46,20.66c-1.6,1.59-2.85,2.66-3.16,2.72c0.42,0.16,0.86,0.28,1.28,0.31c0.11-0.08,1.23-0.89,2.77-2.29
		C11.1,21.16,10.79,20.91,10.46,20.66z"/>
	<path class="st6" d="M16.69,16.67c-0.63,0.9-1.34,1.81-2.12,2.69c0.32,0.48,0.59,1.02,0.8,1.66c0.79-1.12,1.1-2.57,1.74-3.77
		c0,0,0,0-0.01,0C16.98,17.04,16.84,16.85,16.69,16.67z"/>
	<path class="st6" d="M13.92,14.85c-0.58,0.69-1.26,1.42-2.04,2.19c0.29,0.14,0.58,0.31,0.87,0.51c0.66-0.78,1.31-1.59,1.93-2.4
		C14.43,15.03,14.17,14.92,13.92,14.85z"/>
	<path class="st6" d="M14.07,18.69c0.71-0.78,1.43-1.63,2.13-2.55c-0.31-0.29-0.63-0.51-0.96-0.71c-0.67,0.82-1.38,1.63-2.08,2.41
		C13.47,18.08,13.78,18.36,14.07,18.69z"/>
	<path class="st6" d="M13.27,14.68c-0.93-0.18-1.64-0.13-1.74-0.12c-1.19,0.35-2.23,0.85-3.1,1.53c0.07,0.08,1.37,0.11,2.86,0.68
		C11.96,16.13,12.63,15.43,13.27,14.68z"/>
	<path class="st6" d="M15.69,11.29c-0.56-0.13-1.15-0.16-1.74,0c-0.53,0.93-0.96,1.87-1.32,2.72c0.38,0.04,0.72,0.12,1.05,0.21
		C14.43,13.28,15.13,12.3,15.69,11.29z"/>
	<path class="st6" d="M20,14.41c0,0,0.01-0.01,0.01-0.01c-0.12-0.15-0.54-0.66-1.15-1.23c-0.53,0.97-1.14,2.01-1.85,3.05
		c0.28,0.31,0.41,0.53,0.41,0.53s0.01,0.01,0.01,0.01c0.07-0.1,0.13-0.21,0.2-0.3c0.58-0.76,1.49-1.37,2.4-2.01
		C20.01,14.43,20,14.41,20,14.41z"/>
	<path class="st6" d="M16.28,11.47c-0.47,0.87-1.12,1.85-2,2.94c0.26,0.09,0.5,0.2,0.72,0.31c0.74-1,1.43-1.98,2.02-2.9
		C16.78,11.69,16.54,11.56,16.28,11.47z"/>
	<path class="st6" d="M16.5,15.72c0.68-0.92,1.32-1.91,1.9-2.95c-0.23-0.2-0.49-0.39-0.76-0.57c-0.61,0.92-1.33,1.87-2.09,2.82
		C15.94,15.25,16.25,15.49,16.5,15.72z"/>
	<path class="st6" d="M17.47,0.25C7.95,0.25,0.25,7.96,0.25,17.5c0,9.54,7.7,17.25,17.22,17.25c9.52,0,17.28-7.71,17.28-17.25
		C34.75,7.96,26.99,0.25,17.47,0.25z M13.99,23.93c-3.01,1.39-8.73,2.38-9.53-1.16c-1.21-5.04,3.76-8.69,7.45-9.61
		c1.16-2.9,2.66-6.83,5.37-7.47c5.2-1.27,8.61,2.26,6.88,6.89c-0.75,2.14-3.58,2.49-5.37,4.81C16.7,19.99,16.3,22.95,13.99,23.93z
		 M22.37,28.97c-0.17,0.06-2.89,0.69-3.93-1.68c-1.04-2.43-1.21-6.37,1.44-5.91l1.21,4.63l-0.92-4.75c0,0,1.5-2.08,3.52,2.2
		C24.79,25.72,24.1,28.16,22.37,28.97z M26.47,21.09c-2.43,0.75-3.47-1.68-3.53-1.85c-0.46-1.45,0.64-3.99,3.06-4.63
		c4.56-1.22,3.93,1.27,3.93,1.27l-4.16,2.37l4.28-2.14C32.13,17.85,29.01,20.28,26.47,21.09z"/>
	<path class="st6" d="M20.63,7.14C20.63,7.14,20.63,7.14,20.63,7.14c0.01,0.01,0.01,0.01,0.02,0.01L20.63,7.14z"/>
	<path class="st6" d="M21.36,7.45l-0.03-0.01C21.34,7.44,21.35,7.45,21.36,7.45C21.36,7.45,21.36,7.45,21.36,7.45z"/>
</g>
</svg>
