<?xml version="1.0" encoding="utf-8"?>
<!-- Generator: Adobe Illustrator 23.1.1, SVG Export Plug-In . SVG Version: 6.00 Build 0)  -->
<svg version="1.1" id="Layer_1" xmlns="http://www.w3.org/2000/svg" xmlns:xlink="http://www.w3.org/1999/xlink" x="0px" y="0px"
	 viewBox="0 0 35 35" style="enable-background:new 0 0 35 35;" xml:space="preserve">
<style type="text/css">
	.st0{fill:#AEE4FE;}
	.st1{fill:#FDDF76;}
	.st2{fill:#FF8A81;}
	.st3{fill:#97DACC;}
	.st4{fill:#FFD0BE;}
	.st5{fill:#A493CB;}
	.st6{fill:#9ED676;}
</style>
<g>
	<path class="st0" d="M12.68,13.31c3.08,4.16,1.43,7.36-0.51,8.95C16.62,20.21,15.3,15.13,12.68,13.31z"/>
	<path class="st0" d="M17.47,0.25c-9.52,0-17.22,7.64-17.22,17.22c0,9.52,7.7,17.28,17.22,17.28c9.58,0,17.28-7.76,17.28-17.28
		C34.75,7.89,27.05,0.25,17.47,0.25z M24.71,19.3c-1.2,2.11-6.5,3.65-7.58,3.94c0,0.57,0.29,0.34,1.65,1.6
		c-0.57,0.34-2.05,1.08-3.82-1.37c-2.28-0.97-6.56,0.63-9.81-4.45l1.03-0.51l-1.25-1.03c3.25-5.08,6.9-4.28,9.18-5.25
		c1.77-2.45,3.88-2.57,4.45-2.05c0.57,0.51-1.08,2.22-1.08,2.79c1.08,0.29,4.85,1.54,7.24,3.71c2-2.91,5.19-2.57,5.19-2.22
		c0,0-2.4,1.6-2.45,3.59c0.06,1.71,2.45,3.42,2.45,3.42C29.9,21.81,27.74,23.4,24.71,19.3z"/>
	<path class="st0" d="M10.29,15.48c-0.57,0-1.03,0.46-1.03,0.97c0,0.57,0.46,1.03,1.03,1.03c0.51,0,0.97-0.46,0.97-1.03
		C11.26,15.93,10.8,15.48,10.29,15.48z"/>
</g>
</svg>
