<?xml version="1.0" encoding="utf-8"?>
<!-- Generator: Adobe Illustrator 23.1.1, SVG Export Plug-In . SVG Version: 6.00 Build 0)  -->
<svg version="1.1" id="Layer_1" xmlns="http://www.w3.org/2000/svg" xmlns:xlink="http://www.w3.org/1999/xlink" x="0px" y="0px"
	 viewBox="0 0 35 35" style="enable-background:new 0 0 35 35;" xml:space="preserve">
<style type="text/css">
	.st0{fill:#AEE4FE;}
	.st1{fill:#FDDF76;}
	.st2{fill:#FF8A81;}
	.st3{fill:#97DACC;}
	.st4{fill:#FFD0BE;}
	.st5{fill:#A493CB;}
	.st6{fill:#9ED676;}
</style>
<path class="st2" d="M17.47,0.25C7.95,0.25,0.25,7.96,0.25,17.5c0,9.54,7.7,17.25,17.22,17.25c9.52,0,17.28-7.71,17.28-17.25
	C34.75,7.96,26.99,0.25,17.47,0.25z M20.19,29.48h-0.27c0,0,2.87-0.71-2.72-12.17c-5.59,11.46-2.72,12.17-2.72,12.17
	s-5.92-1.37-5.92-8.45c0-7.08,3-5.8,2.39-10.18c0,0,2.16,1.81,1.32,4.16c-0.84,2.35,0.57,3.72,0.57,3.72s-0.57-3.23,1.46-6.46
	c2.03-3.23,1.77-7.04,1.06-7.92c0,0,4.02,1.64,4.68,7.83c0.26,2.39-1.31,5.25,1.41,7.79c0,0-2.8-6.65,1.68-10.84
	c0,0-0.75,3.89,1.02,5.92C27.42,18.76,28,27.49,20.19,29.48z"/>
</svg>
