<?xml version="1.0" encoding="utf-8"?>
<!-- Generator: Adobe Illustrator 23.1.1, SVG Export Plug-In . SVG Version: 6.00 Build 0)  -->
<svg version="1.1" id="Layer_1" xmlns="http://www.w3.org/2000/svg" xmlns:xlink="http://www.w3.org/1999/xlink" x="0px" y="0px"
	 viewBox="0 0 35 35" style="enable-background:new 0 0 35 35;" xml:space="preserve">
<style type="text/css">
	.st0{fill:#AEE4FE;}
	.st1{fill:#FDDF76;}
	.st2{fill:#FF8A81;}
	.st3{fill:#97DACC;}
	.st4{fill:#FFD0BE;}
	.st5{fill:#A493CB;}
	.st6{fill:#9ED676;}
</style>
<path class="st1" d="M25.06,2.03C16.52-2.17,6.25,1.29,2.03,9.89c-4.2,8.54-0.71,18.89,7.83,23.09c8.59,4.22,18.91,0.66,23.11-7.88
	C37.19,16.5,33.65,6.25,25.06,2.03z M22.98,2.78c0.02-0.05,0.08-0.03,0.08-0.03c0.41,0.84,1.24,2.39,1.86,3.33
	c0.05,0.03,0.03,0.08,0.03,0.08c0.05,0.03,0.13,0,0.15-0.05c0.08-0.03,0.05-0.1,0-0.13c-0.57-0.91-1.32-2.36-1.78-3.22
	c0.59,0.1,1.61,0.86,2.61,1.92c1.21,1.29,1.4,2.84,0.38,3.49c-1.01,0.64-2.37-0.21-2.94-1.89C22.74,4.57,22.6,3.04,22.98,2.78z
	 M20.92,7.23l0.05,0.03c-0.22,1.22-0.66,3.42-0.76,4.9c-0.03,0.05,0,0.13,0.05,0.15c0.05,0.03,0.05,0.03,0.05,0.03
	c0.13,0,0.23-0.08,0.2-0.15c0.12-1.4,0.51-3.49,0.73-4.72c0.49,0.56,1.01,2.08,1.2,3.89c0.24,2.21-0.84,3.9-2.29,3.76
	C18.63,15,18,13.17,18.68,11.02C19.33,8.93,20.36,7.21,20.92,7.23z M11.72,18.33c-2.49,0.42-4.71,0.29-5.33-0.27
	c1.42-0.44,3.25-1.07,4.52-1.59c0.1-0.08,0.15-0.18,0.07-0.28c-0.03-0.08-0.13-0.13-0.2-0.1c-1.3,0.57-3.18,1.17-4.6,1.61
	c-0.01-0.76,1.56-2.41,3.77-3.8c2.33-1.52,4.83-1.31,5.51,0.42C16.19,16.08,14.49,17.85,11.72,18.33z M13.16,31.67
	c-1.71,0.24-2.87-1.66-2.63-4.21c0.21-2.37,0.86-4.34,1.47-4.67c0.35,2.27,0.54,4.71,0.59,4.74c-0.03,0.05,0,0.13,0.05,0.15
	s0.1,0.05,0.13,0c0.13,0,0.18-0.1,0.15-0.18c0.02-0.05-0.22-2.52-0.54-4.71c0.69,0.28,1.69,1.98,2.4,4.16
	C15.64,29.34,14.84,31.48,13.16,31.67z M22.94,23.27c-2.64,1.88-5.47,1.69-6.35-0.26c-0.85-2.01,1.02-4.13,4.17-4.74
	c3.08-0.58,5.83-0.5,6.3,0.24c-2.29,1.04-6.3,2.36-6.3,2.36c-0.1,0.08-0.15,0.18-0.13,0.26c-0.03,0.05,0.03,0.08,0.08,0.1
	c0.05,0.03,0.1,0.05,0.18,0.02c0,0,3.94-1.3,6.25-2.39C26.99,19.81,25.25,21.68,22.94,23.27z"/>
</svg>
