<svg xmlns="http://www.w3.org/2000/svg" width="33.213" height="46.814" viewBox="0 0 33.213 46.814"><defs><style>.a{fill:#d28b82;}</style></defs><g transform="translate(-22.33 -10.97)"><path class="a" d="M37.731,56.818s-15.4.06-15.4-13.139,13.7-16.8,13.7-27.046a6.779,6.779,0,0,0-2.364-5.664c7.277.222,13.067,7.535,13.067,17.921,0,2.064-.75,6.335-1.65,7.235s5.85-4.086,5.85-8.435c0,0,4.614,4.386,4.614,13.877S45.368,57.784,40.533,57.784c3.036-3.036,5.1-5.922,5.1-9.335,0-6.887-5.772-6.287-7.2-9.8a3.45,3.45,0,0,1-.21-.732,3.6,3.6,0,0,1,.66-2.646l1.572-2.268s-8.963,2.58-8.963,12.179S36.267,55.348,37.731,56.818Z" transform="translate(0 0)"/></g></svg>