<svg xmlns="http://www.w3.org/2000/svg" width="50.518" height="46.141" viewBox="0 0 50.518 46.141"><defs><style>.a{fill:#fff;}</style></defs><g transform="matrix(0.883, 0.469, -0.469, 0.883, 78.808, -139.749)"><g transform="translate(8.644 153.68)"><path class="a" d="M87.654,155.561,76.386,153.68l-.332,4.992-4.669,5.184,1.451,3.805c-1.206,1.693-2.051,3.023-2.326,3.458l-2.285,1.319L59.93,171l5.593,5.519,1.984,7.6,2.9-7.905,2.285-1.319c.7-.026,3.373-.146,6.6-.558l1.275,5.092,3.542-5.9a28.845,28.845,0,0,0,5.648-1.746l5.174,3.523-.684-6.89.043,0H94.3l0-.064c3.111-3.513,5.063-7.927,6.666-12.291a39.484,39.484,0,0,0-13.3-.5Zm-.276,2.963a33.543,33.543,0,0,1-6.159,4.456,27.837,27.837,0,0,1-4.452,2.031,27.107,27.107,0,0,1,6.909-6.529,12.054,12.054,0,0,1,3.548-1.277A11.382,11.382,0,0,0,87.378,158.524ZM75.17,167.1a27.635,27.635,0,0,0,6.806-2.772,35.526,35.526,0,0,0,5.822-4.1c.129.406.277.8.439,1.192a33.354,33.354,0,0,1-7.657,5.211,23.077,23.077,0,0,1-6.613,2.149C74.355,168.219,74.757,167.658,75.17,167.1Zm-2.36,3.362a23.6,23.6,0,0,0,8.455-2.447,35.108,35.108,0,0,0,7.666-5.145,18.15,18.15,0,0,0,1.241,1.986,13.9,13.9,0,0,0,2.651,2.83,11.632,11.632,0,0,1-2.6,2.133c-4.606,2.659-12.637,3.24-17.991,3.562l-3.08,1.778-1.4,3.808-.848-3.244-2.386-2.357,4,.695,3.08-1.778C71.976,171.705,72.382,171.093,72.811,170.458ZM93.76,166.6a14.459,14.459,0,0,1-2.332-2.648,13.36,13.36,0,0,1-2.67-7.006,38.685,38.685,0,0,1,10.112.317A37.7,37.7,0,0,1,93.76,166.6Zm-1.851-8.439a2.133,2.133,0,1,0,2.913.78A2.137,2.137,0,0,0,91.909,158.163Zm.774,1.34a.585.585,0,1,1-.215.8A.582.582,0,0,1,92.683,159.5ZM80.828,174.127c.408-.06.825-.132,1.241-.2l-.911,1.518ZM91.3,170.972a12.149,12.149,0,0,0,1.533-1.152l.234,2.353-1.766-1.2Zm-7.162-14.437a10.874,10.874,0,0,0-1.233.606c-3.175,1.833-6.545,5.778-8.982,9.035l-.756-1.984,4.394-4.877.257-3.835,6.321,1.055Z" transform="translate(-59.93 -153.68)"/></g></g></svg>