<svg xmlns="http://www.w3.org/2000/svg" width="36.3" height="25.401" viewBox="0 0 36.3 25.401"><defs><style>.a{fill:#fff;stroke:#fff;stroke-width:0.3px;}</style></defs><g transform="translate(52.995 -26.754) rotate(90)"><path class="a" d="M51.775,38.351a37.03,37.03,0,0,0-1.541-5.33c-.366-1.064-.746-2.165-1.048-3.253-.215-.775-.4-1.583-.585-2.364a24.586,24.586,0,0,0-1.859-5.773c-1.489-2.9-4.146-4.776-6.767-4.785q-.52,0-1.039,0c-2.622.009-5.279,1.888-6.769,4.785A24.589,24.589,0,0,0,30.308,27.4c-.182.782-.37,1.591-.585,2.366-.3,1.089-.681,2.188-1.048,3.253a37.058,37.058,0,0,0-1.54,5.33,12.139,12.139,0,0,0,2.6,10,12.588,12.588,0,0,0,9.722,4.5h0a12.59,12.59,0,0,0,9.722-4.5A12.138,12.138,0,0,0,51.775,38.351Zm-3.848,8.957a10.967,10.967,0,0,1-8.471,3.909h0a10.965,10.965,0,0,1-8.471-3.91,10.516,10.516,0,0,1-2.247-8.661,35.256,35.256,0,0,1,1.479-5.1c.375-1.087.762-2.211,1.078-3.347.225-.808.417-1.634.6-2.433a23.022,23.022,0,0,1,1.72-5.4c1-1.935,3.028-3.893,5.327-3.9h1.026c2.3.008,4.33,1.965,5.325,3.9a23.019,23.019,0,0,1,1.721,5.4c.186.8.377,1.624.6,2.432.316,1.137.7,2.261,1.078,3.348a35.232,35.232,0,0,1,1.479,5.095A10.52,10.52,0,0,1,47.926,47.307Z" transform="translate(0 0)"/><path class="a" d="M45.215,42.668c-.212,0-5.094-.038-6.243,8.11-.489,3.47,0,6.187,1.461,8.077a5.951,5.951,0,0,0,9.522,0c1.459-1.89,1.951-4.607,1.462-8.077C50.267,42.629,45.38,42.669,45.215,42.668Zm3.438,14.951a4.344,4.344,0,0,1-6.917,0c-1.119-1.449-1.479-3.653-1.071-6.549.907-6.43,4.364-6.5,4.549-6.5h0c.034,0,3.587-.027,4.509,6.5C50.132,53.967,49.772,56.17,48.652,57.619Z" transform="translate(-5.739 -13.655)"/></g></svg>