<svg xmlns="http://www.w3.org/2000/svg" width="41.19" height="43.116" viewBox="0 0 41.19 43.116"><defs><style>.a{fill:#c7b79c;}</style></defs><path class="a" d="M57.788,38.069a12.606,12.606,0,0,0,2.656-7.712C60.445,24.192,55.489,16,53.222,16S46,24.192,46,30.357s4.751,10.768,7.222,10.768C54.55,41.125,56.344,39.927,57.788,38.069ZM53.222,39.33c-1.444,0-5.617-3.526-5.617-8.973s4.414-12.23,5.617-12.562c1.2.328,5.617,7.134,5.617,12.562S54.667,39.33,53.222,39.33Z" transform="translate(-32.641 -16)"/><path class="a" d="M27.493,72.813c-3.9-4.361-12.583-6.232-14.184-4.442s.072,11.5,3.972,15.86a10.059,10.059,0,0,0,6.749,3.342c.257,0,.514.031.762.031a6.1,6.1,0,0,0,4.414-1.481c.939-1.05,1.448-3.316,1.3-5.774a12.467,12.467,0,0,0-3.009-7.537Zm.578,12.069c-1.019,1.14-6.2,1.947-9.63-1.9S13.8,70.821,14.429,69.627c1.051-.713,8.482.6,11.913,4.437S29.082,83.728,28.071,84.881Z" transform="translate(-12.706 -44.502)"/><path class="a" d="M73.945,72.813a12.478,12.478,0,0,0-2.985,7.551c-.152,2.454.357,4.72,1.3,5.774a6.064,6.064,0,0,0,4.414,1.481,6.222,6.222,0,0,0,.762-.031,10.063,10.063,0,0,0,6.753-3.356c3.9-4.361,5.573-14.07,3.972-15.86S77.845,68.452,73.945,72.813Zm9.08,10.153c-3.447,3.854-8.627,3.046-9.63,1.9S71.654,77.932,75.1,74.1c2.841-3.176,8.426-4.626,10.854-4.626a2.1,2.1,0,0,1,1.059.153C87.636,70.821,86.456,79.13,83.025,82.966Z" transform="translate(-47.57 -44.502)"/></svg>