<svg xmlns="http://www.w3.org/2000/svg" width="36.003" height="36" viewBox="0 0 36.003 36"><path d="M52.131,24.388A18,18,0,1,1,34.2,6.369,18,18,0,0,1,52.131,24.388ZM43.92,30.951c-.116.056-.188.1-.264.128a20.748,20.748,0,0,1-7.278,1.7,15.005,15.005,0,0,1-4.983-.493A9.209,9.209,0,0,1,27.142,29.8,7.814,7.814,0,0,1,25.1,24.786c-.012-.186-.067-.239-.248-.239q-3.082.008-6.165,0c-.2,0-.269.063-.251.258.052.578.078,1.159.15,1.734A14.125,14.125,0,0,0,20.2,31.609a15.469,15.469,0,0,0,12.79,8.415,14.693,14.693,0,0,0,4.53-.32A15.7,15.7,0,0,0,49.789,25.511a15.354,15.354,0,0,0-.179-3.774A15.151,15.151,0,0,0,46,14.108,15.418,15.418,0,0,0,32.932,8.721a13.431,13.431,0,0,0-3.628.7A15.544,15.544,0,0,0,18.8,20.932c-.157.621-.222,1.265-.332,1.913.107.012.163.025.22.025,2.1,0,4.193,0,6.289,0,.174,0,.23-.076.259-.228a7.323,7.323,0,0,1,1.924-3.71,10.331,10.331,0,0,1,7.269-3.2,10.765,10.765,0,0,1,3.641.445,8.108,8.108,0,0,1,5.435,4.689,5.086,5.086,0,0,1,.442,2.571,1.089,1.089,0,0,1-.871,1.048,3.5,3.5,0,0,1-.619.055q-6.415,0-12.828,0c-.587,0-.6,0-.509.579A6.237,6.237,0,0,0,31.352,29.1a8.235,8.235,0,0,0,4.889,1.749,12.548,12.548,0,0,0,4.165-.447c.878-.247,1.737-.558,2.608-.83.081-.025.245-.013.268.034C43.506,30.04,43.7,30.486,43.92,30.951Zm-10.3-8.08v0c1.389,0,2.779.026,4.167-.013a7.555,7.555,0,0,0,1.682-.284.852.852,0,0,0,.641-.953,3.544,3.544,0,0,0-.175-1,4.826,4.826,0,0,0-2.572-2.652A6,6,0,0,0,34,17.512a5.172,5.172,0,0,0-3.27,1.586,6.2,6.2,0,0,0-1.618,3.412c-.058.361-.056.361.314.361Z" transform="translate(-16.128 -6.369)"/></svg>