<svg xmlns="http://www.w3.org/2000/svg" width="40.637" height="40.629" viewBox="0 0 40.637 40.629"><g transform="translate(-4.1 -4.1)"><path d="M24.411,7.761c5.426,0,6.063.024,8.208.121a11.085,11.085,0,0,1,3.773.7A6.3,6.3,0,0,1,38.73,10.1a6.206,6.206,0,0,1,1.516,2.338,11.292,11.292,0,0,1,.7,3.773c.1,2.145.121,2.782.121,8.208s-.024,6.063-.121,8.208a11.085,11.085,0,0,1-.7,3.773,6.3,6.3,0,0,1-1.516,2.338,6.205,6.205,0,0,1-2.338,1.516,11.292,11.292,0,0,1-3.773.7c-2.145.1-2.782.121-8.208.121s-6.063-.024-8.208-.121a11.085,11.085,0,0,1-3.773-.7,6.3,6.3,0,0,1-2.338-1.516A6.205,6.205,0,0,1,8.575,36.4a11.292,11.292,0,0,1-.7-3.773c-.1-2.145-.121-2.782-.121-8.208s.024-6.063.121-8.208a11.085,11.085,0,0,1,.7-3.773A6.3,6.3,0,0,1,10.091,10.1a6.205,6.205,0,0,1,2.338-1.516,11.292,11.292,0,0,1,3.773-.7c2.145-.1,2.782-.121,8.208-.121m0-3.661c-5.515,0-6.208.024-8.377.121a14.888,14.888,0,0,0-4.926.943,9.9,9.9,0,0,0-3.6,2.346,10.075,10.075,0,0,0-2.346,3.6,14.9,14.9,0,0,0-.943,4.935C4.124,18.2,4.1,18.9,4.1,24.411s.024,6.208.121,8.377a14.985,14.985,0,0,0,.943,4.935,9.9,9.9,0,0,0,2.346,3.6,10.075,10.075,0,0,0,3.6,2.346,14.9,14.9,0,0,0,4.935.943c2.169.1,2.854.121,8.377.121s6.208-.024,8.377-.121a14.985,14.985,0,0,0,4.935-.943,9.9,9.9,0,0,0,3.6-2.346,10.075,10.075,0,0,0,2.346-3.6,14.9,14.9,0,0,0,.943-4.935c.1-2.169.121-2.854.121-8.377s-.024-6.208-.121-8.377a14.985,14.985,0,0,0-.943-4.935,9.9,9.9,0,0,0-2.346-3.6,10.075,10.075,0,0,0-3.6-2.346A14.9,14.9,0,0,0,32.8,4.213c-2.177-.089-2.87-.113-8.385-.113Z"/><path d="M137.033,126.6a10.433,10.433,0,1,0,10.433,10.433A10.435,10.435,0,0,0,137.033,126.6Zm0,17.206a6.773,6.773,0,1,1,6.773-6.773A6.772,6.772,0,0,1,137.033,143.806Z" transform="translate(-112.623 -112.623)"/><circle cx="2.435" cy="2.435" r="2.435" transform="translate(32.82 11.131)"/></g></svg>