<svg xmlns="http://www.w3.org/2000/svg" width="128.073" height="141.54" viewBox="0 0 128.073 141.54"><defs><style>.a{fill:none;}.b{font-size:16px;font-family:OstrichSans-Heavy, Ostrich Sans;font-weight:800;}</style></defs><g transform="translate(-29.09 -14.01)"><rect class="a" width="62.17" height="14.231" transform="translate(94.993 141.319)"/><text class="b" transform="translate(95.09 151.01)"><tspan x="0" y="0">POKE bowls</tspan></text><g transform="translate(29.09 14.01)"><path d="M74.592,14.01v0H46.023v0H29.1V78.118H46.023V69.906H74.592v0H91.515V14.01ZM46.023,52.978V30.942H74.592V52.983H46.023Z" transform="translate(-29.096 -14.01)"/><path d="M221.622,14.01v0H193.053v0H176.13V69.924h16.923v-.018h28.569v0h16.923V14.01ZM193.053,52.978V30.942h28.569V52.983H193.053Z" transform="translate(-110.473 -14.01)"/><g transform="translate(65.657 67.367)"><rect width="62.402" height="16.923" transform="translate(0 39.156)"/><rect width="62.402" height="16.923"/><rect width="62.402" height="16.923" transform="translate(0 19.576)"/></g><path d="M71.845,181.763H91.492V164.84H29.09v16.923H49.224c-1.429,5.367-6.644,20.656-20.112,22.34v16.709s17.557.237,31.351-16.709l.071-.17.071.17c13.789,16.946,31.351,16.709,31.351,16.709V204.1C78.489,202.42,73.269,187.131,71.845,181.763Z" transform="translate(-29.09 -97.491)"/></g></g></svg>