<svg xmlns="http://www.w3.org/2000/svg" width="18.579" height="22.225" viewBox="0 0 18.579 22.225"><defs><style>.a{fill:#fff;}</style></defs><path class="a" d="M14.392,24.705c-.12.419-.226.817-.319,1.2-.12.485-.226.924-.326,1.322s-.166.7-.206.924a.888.888,0,0,1-.764.737,2.322,2.322,0,0,1-1.156-.086,2.634,2.634,0,0,1-1.07-.664,1.674,1.674,0,0,1-.5-1.229A9.572,9.572,0,0,1,10.359,25c.2-.87.485-1.907.857-3.07s.811-2.432,1.316-3.794q.658-1.754,1.455-3.5a1.2,1.2,0,0,1,.95-.691,7.3,7.3,0,0,1,2.445.08.678.678,0,0,1,.465.937c-.445,1-.857,1.987-1.223,2.95-.3.784-.578,1.555-.85,2.306a.089.089,0,0,0,.12.113,9.129,9.129,0,0,0,1.056-.578,7.94,7.94,0,0,0,1.535-1.289,6.479,6.479,0,0,0,1.1-1.648,4.633,4.633,0,0,0,.412-1.933,2.386,2.386,0,0,0-.724-1.927,3.094,3.094,0,0,0-2.033-.611,4.865,4.865,0,0,0-2.5.651,7.333,7.333,0,0,0-1.967,1.615,7.837,7.837,0,0,0-1.262,2.013,4.879,4.879,0,0,0-.445,1.814.73.73,0,0,1-.538.737,1.462,1.462,0,0,1-.99-.047,2.106,2.106,0,0,1-.917-.724A2.316,2.316,0,0,1,8.2,16.951a4.144,4.144,0,0,1,.6-1.894,7.888,7.888,0,0,1,1.754-2.106,10.438,10.438,0,0,1,2.857-1.727,10.141,10.141,0,0,1,3.927-.724,10.753,10.753,0,0,1,2.478.292,7.9,7.9,0,0,1,2.212.877,5.218,5.218,0,0,1,1.595,1.468,3.523,3.523,0,0,1,.618,2.06,5.079,5.079,0,0,1-.545,2.325,6.7,6.7,0,0,1-1.468,1.907,9.531,9.531,0,0,1-2.146,1.462,14.237,14.237,0,0,1-2.126.864.07.07,0,0,0-.06.086c.013.372.04.731.08,1.083.04.405.1.8.166,1.169s.146.724.239,1.063c.073.259.153.518.233.757.053.153.113.306.166.445a8.311,8.311,0,0,0,.379.811,7.372,7.372,0,0,0,.432.7,5.26,5.26,0,0,0,.472.591,5.765,5.765,0,0,0,.5.485,4.919,4.919,0,0,0,.538.379,4.373,4.373,0,0,0,.558.279,3.5,3.5,0,0,0,.585.179,3.682,3.682,0,0,0,.6.086,5.015,5.015,0,0,0,.631-.007,4.518,4.518,0,0,0,.658-.106,5.758,5.758,0,0,0,.684-.213,5.493,5.493,0,0,0,.7-.319c.086-.047.179-.093.266-.146a.653.653,0,0,1,.757,1.056c-.126.106-.246.213-.372.319-.3.246-.6.472-.89.678s-.565.372-.844.532c-.14.08-.286.159-.439.233a8.127,8.127,0,0,1-.864.379,8.908,8.908,0,0,1-.85.266,6.137,6.137,0,0,1-.837.146,5.748,5.748,0,0,1-.585.033c-.08,0-.153,0-.233-.007a5.056,5.056,0,0,1-.784-.093c-.126-.027-.252-.053-.379-.093s-.246-.073-.365-.12a4.7,4.7,0,0,1-.7-.319,5.615,5.615,0,0,1-.644-.419,5.678,5.678,0,0,1-.485-.412,6.582,6.582,0,0,1-.545-.585,7.106,7.106,0,0,1-.485-.664c-.153-.233-.3-.485-.432-.737s-.259-.532-.372-.811-.219-.571-.312-.877-.179-.618-.252-.943-.14-.664-.193-1.01q-.07-.458-.12-.937a.1.1,0,0,0-.186.007" transform="translate(-8.2 -10.5)"/></svg>