<svg xmlns="http://www.w3.org/2000/svg" width="46.869" height="38.111" viewBox="0 0 46.869 38.111"><g transform="translate(-75.1 -98.4)"><g transform="translate(75.1 98.4)"><g transform="translate(0)"><path d="M89.823,136.511c17.686,0,27.364-14.667,27.364-27.364,0-.413,0-.825-.019-1.238a19.593,19.593,0,0,0,4.8-4.989,19.492,19.492,0,0,1-5.533,1.519,9.676,9.676,0,0,0,4.239-5.326,19.13,19.13,0,0,1-6.114,2.326,9.62,9.62,0,0,0-16.636,6.583,10.629,10.629,0,0,0,.244,2.194,27.31,27.31,0,0,1-19.824-10.053,9.656,9.656,0,0,0,2.982,12.847,9.728,9.728,0,0,1-4.351-1.2v.131a9.638,9.638,0,0,0,7.708,9.434,9.673,9.673,0,0,1-4.332.169,9.617,9.617,0,0,0,8.984,6.677,19.289,19.289,0,0,1-11.947,4.126,18.506,18.506,0,0,1-2.288-.131,27.357,27.357,0,0,0,14.723,4.295" transform="translate(-75.1 -98.4)"/></g></g></g></svg>