<svg xmlns="http://www.w3.org/2000/svg" xmlns:xlink="http://www.w3.org/1999/xlink" width="18.359" height="24.902" viewBox="0 0 18.359 24.902">
  <defs>
    <clipPath id="clip-path">
      <rect id="Rectangle_1052" data-name="Rectangle 1052" width="10.46" height="10.082" fill="#fff"/>
    </clipPath>
  </defs>
  <g id="Group_620" data-name="Group 620" transform="translate(-27.504)">
    <path id="Path_83" data-name="Path 83" d="M32.342,6.45H29.473a.508.508,0,0,0-.453.5L27.51,24.282a.65.65,0,0,0,.1.434.38.38,0,0,0,.327.186h17.49a.38.38,0,0,0,.327-.186.65.65,0,0,0,.1-.434L44.346,6.947a.508.508,0,0,0-.453-.5H41.1m.468,3.132a.5.5,0,1,1-.5.5A.49.49,0,0,1,41.568,9.583Zm.558-3.132V5.4a5.4,5.4,0,1,0-10.792,0V6.45m1.116,0V5.4a4.28,4.28,0,0,1,8.559,0V6.45H32.45m-.558,3.132a.5.5,0,1,1-.5.5A.49.49,0,0,1,31.892,9.583Zm9.055-2.047V8.559a1.582,1.582,0,1,0,1.054,0V7.536m-9.614,0h8.559m-9.614,0V8.559a1.582,1.582,0,1,0,1.054,0V7.536m8.611,0h2.567l1.409,16.219H28.467L29.876,7.536H41Z" transform="translate(0 0)" fill="#fff"/>
    <g id="Logo_POKE_Cuadrado_negro" data-name="Logo POKE Cuadrado negro" transform="translate(31.453 12.451)">
      <g id="Group_616" data-name="Group 616">
        <g id="Group_615" data-name="Group 615" clip-path="url(#clip-path)">
          <path id="Path_84" data-name="Path 84" d="M79.828,161.983h2.333v1.8H79.828Zm2.333-1.383H78.446v5.236h1.382v-.671h3.716V160.6Z" transform="translate(-78.446 -160.6)" fill="#fff"/>
          <path id="Path_85" data-name="Path 85" d="M148.993,161.983h2.333v1.8h-2.333Zm2.333-1.383h-3.716v4.567h5.1V160.6Z" transform="translate(-142.249 -160.6)" fill="#fff"/>
          <rect id="Rectangle_1048" data-name="Rectangle 1048" width="5.097" height="1.382" transform="translate(5.362 8.7)" fill="#fff"/>
          <rect id="Rectangle_1049" data-name="Rectangle 1049" width="5.097" height="1.382" transform="translate(5.362 5.502)" fill="#fff"/>
          <rect id="Rectangle_1050" data-name="Rectangle 1050" width="5.097" height="1.382" transform="translate(5.362 7.101)" fill="#fff"/>
          <g id="Group_614" data-name="Group 614">
            <g id="Group_613" data-name="Group 613" clip-path="url(#clip-path)">
              <path id="Path_86" data-name="Path 86" d="M81.935,232.932h1.6V231.55h-5.1v1.382h1.645c-.117.438-.543,1.687-1.643,1.824v1.365a3.507,3.507,0,0,0,2.56-1.365l.006-.014.006.014a3.507,3.507,0,0,0,2.56,1.365v-1.365c-1.1-.137-1.526-1.386-1.642-1.824" transform="translate(-78.443 -226.049)" fill="#fff"/>
            </g>
          </g>
        </g>
      </g>
    </g>
  </g>
</svg>
