<?xml version="1.0" encoding="utf-8"?>
<!-- Generator: Adobe Illustrator 24.0.1, SVG Export Plug-In . SVG Version: 6.00 Build 0)  -->
<svg version="1.1" id="Layer_1" xmlns="http://www.w3.org/2000/svg" xmlns:xlink="http://www.w3.org/1999/xlink" x="0px" y="0px"
	 viewBox="0 0 345 345" style="enable-background:new 0 0 345 345;" xml:space="preserve">
<style type="text/css">
	.st0{fill:none;}
	.st1{font-family:'OstrichSans-Heavy';}
	.st2{font-size:36.7806px;}
</style>
<g>
	<g>
		<path d="M130.98,17.5v0.01H67V17.5h-37.9v143.57H67v-18.39h63.98v0.01h37.9V17.5H130.98z M67,104.78V55.42h63.98v49.36H67z"/>
		<path d="M278.01,17.5v0.01h-63.98V17.5h-37.9v125.22h37.9v-0.04h63.98v0.01h37.9V17.5H278.01z M214.03,104.78V55.42h63.98v49.36
			H214.03z"/>
		<g>
			<g>
				<rect x="176.13" y="256.07" width="139.75" height="37.9"/>
				<rect x="176.13" y="168.37" width="139.75" height="37.9"/>
			</g>
			<rect x="176.13" y="212.22" width="139.75" height="37.9"/>
		</g>
		<path d="M124.84,206.24h44v-37.9H29.09v37.9h45.09c-3.2,12.02-14.88,46.26-45.04,50.03v37.42c0,0,39.32,0.53,70.21-37.42
			l0.16-0.38l0.16,0.38c30.88,37.95,70.21,37.42,70.21,37.42v-37.42C139.72,252.49,128.03,218.25,124.84,206.24z"/>
	</g>
	<rect x="176.68" y="302.62" class="st0" width="139.23" height="24.88"/>
	<text transform="matrix(1 0 0 1 176.6824 327.4063)" class="st1 st2">POKE </text>
</g>
</svg>
