<?xml version="1.0" encoding="utf-8"?>
<!-- Generator: Adobe Illustrator 23.1.1, SVG Export Plug-In . SVG Version: 6.00 Build 0)  -->
<svg version="1.1" id="Layer_1" xmlns="http://www.w3.org/2000/svg" xmlns:xlink="http://www.w3.org/1999/xlink" x="0px" y="0px"
	 viewBox="0 0 35 35" style="enable-background:new 0 0 35 35;" xml:space="preserve">
<style type="text/css">
	.st0{fill:#AEE4FE;}
	.st1{fill:#FDDF76;}
	.st2{fill:#FF8A81;}
	.st3{fill:#97DACC;}
	.st4{fill:#FFD0BE;}
	.st5{fill:#A493CB;}
	.st6{fill:#9ED676;}
</style>
<g>
	<path class="st4" d="M12.68,24.01c-0.12,0.06-0.17,0.2-0.12,0.33c0.05,0.13,0.2,0.19,0.33,0.14c0.24-0.1,0.51,0.02,0.61,0.25
		c0.08,0.19,0.02,0.39-0.12,0.52c0,0-0.01,0.01-0.01,0.01c-0.1,0.08-0.08,0.28,0.01,0.4c0.18,0.23,0.37,0.07,0.38,0.07
		c0.15-0.12,0.36-0.15,0.54-0.04c0.22,0.13,0.29,0.42,0.16,0.64c-0.03,0.06-0.04,0.13-0.03,0.19c0.02,0.07,0.06,0.12,0.12,0.16
		c0.06,0.03,0.13,0.04,0.19,0.03c0.06-0.02,0.11-0.05,0.15-0.1l1.49-3.13c-0.16-0.14-0.27-0.29-0.34-0.4L12.68,24.01z"/>
	<path class="st4" d="M14.24,8.28c-0.02,0-1.64,0.05-2.49,0.94c-0.32,0.34-0.49,1.09-0.4,1.78c0,0.01,0.21,2.96,2.18,2.96
		c0,0,0,0,0,0c0.18,0,0.38-0.02,0.59-0.07c0.02-0.01,0.55-0.12,1.25-0.15c0.18-0.26,0.51-0.83,0.72-1.58
		c0.37-1.32,0.2-2.61-0.5-3.85C15.18,8.3,14.24,8.28,14.24,8.28z"/>
	<path class="st4" d="M20.71,9.75c-1.05-0.69-2.38-1.13-4.03-1.33c1.49,2.52-0.07,5.04-0.26,5.38c0.97,0.13,1.72,0.5,2.23,1.07
		C18.97,14.66,21.47,12.84,20.71,9.75z"/>
	<path class="st4" d="M17.82,20.3c-0.04,0.04-1.5,1.46-1.06,2.16c0,0.01,0,0.01,0.01,0.01c0.01,0.02,0.27,0.54,0.86,0.54
		c0.16,0,1.16-0.03,2.66-1.31C19.04,21.52,18.25,20.82,17.82,20.3z"/>
	<path class="st4" d="M17.47,0.25c-9.52,0-17.22,7.64-17.22,17.22c0,9.52,7.7,17.28,17.22,17.28c9.58,0,17.28-7.76,17.28-17.28
		C34.75,7.89,27.05,0.25,17.47,0.25z M21.83,21.68c-1.59,1.42-3.26,2.07-3.33,2.1c-0.62,0.28-1.16,0.16-1.3,0.13
		c0,0-1.5,3.14-1.51,3.15c-0.43,0.85-1.34,0.59-1.63,0.42c-0.51-0.3-0.55-0.76-0.56-0.77c-0.31-0.03-0.62-0.18-0.84-0.44
		c-0.23-0.26-0.32-0.6-0.3-0.92c-0.3-0.11-0.55-0.34-0.68-0.66c-0.25-0.61,0.04-1.3,0.65-1.55c0.02-0.01,3.4-0.96,3.4-0.96
		c-0.03-0.84,0.63-1.6,1.26-2.35c0.72-0.84,1.46-1.71,1.46-2.75c0-1.59-0.96-2.4-2.85-2.4c-0.72,0-1.83,0.22-2.09,0.22c0,0,0,0,0,0
		c-1.2,0-2.12-0.68-2.66-1.96c-0.35-0.83-0.43-1.66-0.44-1.81c-0.15-1.02,0.05-1.86,0.61-2.51c1.06-1.23,2.98-1.27,3.2-1.27
		c0,0,4.38-0.22,7.3,1.95c1.65,1.23,2.67,2.99,3.02,5.5C24.91,17.39,23.96,19.77,21.83,21.68z"/>
	<path class="st4" d="M19.14,15.67c0.28,0.95,0.25,1.43,0.25,1.45c0.87,0.08,2.92,0.09,4.3-1.4c-0.01-0.26,0.06-2.72-1.92-5.09
		C21.89,14.1,19.51,15.43,19.14,15.67z"/>
	<path class="st4" d="M19.25,18.04c-0.17,0.56-0.48,1.06-0.82,1.52c0.34,0.46,1.26,1.43,2.97,1.24c1.2-1.13,1.93-2.38,2.19-3.76
		C21.82,18.43,19.46,18.06,19.25,18.04z"/>
</g>
</svg>
