<svg xmlns="http://www.w3.org/2000/svg" width="92.436" height="89.105" viewBox="0 0 92.436 89.105"><defs><style>.a{fill:#fff;}</style></defs><g transform="translate(-20.091 -20.027)"><g transform="translate(20.091 20.027)"><path class="a" d="M53.947,21H21.1V67.266H33.312V61.329H66.135V21ZM33.312,49.141V33.212H53.923v15.9H33.312Z" transform="translate(-21.1 -21)"/><path class="a" d="M250.323,21H217.5V61.353h12.212v-.024h32.823V21ZM229.712,49.141V33.212h20.611v15.9H229.712Z" transform="translate(-170.1 -21)"/><g transform="translate(47.376 48.631)"><rect class="a" width="45.035" height="12.212" transform="translate(0 28.262)"/><rect class="a" width="45.035" height="12.212"/><rect class="a" width="45.035" height="12.212" transform="translate(0 14.119)"/></g><path class="a" d="M51.968,234.612H66.159V222.4H21.1v12.212H35.629c-1.038,3.862-4.8,14.915-14.5,16.122V262.8s12.671.169,22.614-12.067l.048-.121.048.121C53.778,262.97,66.449,262.8,66.449,262.8V250.734C56.747,249.527,52.982,238.5,51.968,234.612Z" transform="translate(-21.1 -173.793)"/></g></g></svg>