<svg xmlns="http://www.w3.org/2000/svg" width="88.523" height="85.333" viewBox="0 0 88.523 85.333"><g transform="translate(0 0)"><path d="M52.557,21H21.1V65.308H32.8V59.622H64.229V21ZM32.8,47.95V32.7H52.534V47.927H32.8Z" transform="translate(-21.1 -21)"/><path d="M248.934,21H217.5V59.645h11.7v-.023h31.434V21ZM229.2,47.95V32.7h19.739V47.927H229.2Z" transform="translate(-172.106 -21)"/><g transform="translate(45.371 46.573)"><rect width="43.129" height="11.695" transform="translate(0 27.065)"/><rect width="43.129" height="11.695"/><rect width="43.129" height="11.695" transform="translate(0 13.521)"/></g><path d="M50.662,234.1h13.59V222.4H21.1v11.7H35.014c-.994,3.7-4.6,14.284-13.891,15.439v11.557s12.134.162,21.657-11.557l.046-.116.046.116c9.523,11.718,21.657,11.557,21.657,11.557V249.535C55.238,248.379,51.632,237.816,50.662,234.1Z" transform="translate(-21.1 -175.85)"/></g></svg>