<?xml version="1.0" encoding="utf-8"?>
<!-- Generator: Adobe Illustrator 23.1.1, SVG Export Plug-In . SVG Version: 6.00 Build 0)  -->
<svg version="1.1" id="Layer_1" xmlns="http://www.w3.org/2000/svg" xmlns:xlink="http://www.w3.org/1999/xlink" x="0px" y="0px"
	 viewBox="0 0 35 35" style="enable-background:new 0 0 35 35;" xml:space="preserve">
<style type="text/css">
	.st0{fill:#AEE4FE;}
	.st1{fill:#FDDF76;}
	.st2{fill:#FF8A81;}
	.st3{fill:#97DACC;}
	.st4{fill:#FFD0BE;}
	.st5{fill:#A493CB;}
	.st6{fill:#9ED676;}
</style>
<g>
	<path class="st3" d="M15.2,6.88l0.29,1.55h4.03l0.29-1.55c0.04-0.21,0.22-0.36,0.44-0.36h0.34l0.17-1.21h-6.49l0.17,1.21h0.34
		C14.98,6.51,15.16,6.67,15.2,6.88z"/>
	<path class="st3" d="M21.58,20.69c-1.42-3.39-2.14-6.96-2.14-10.64V9.32h-3.88v0.73c0,3.67-0.72,7.25-2.14,10.64l-0.25,0.59
		c-1.09,2.58-1.38,5.41-0.85,8.16c0.03,0.15,0.16,0.26,0.32,0.26h9.72c0.16,0,0.29-0.11,0.32-0.26c0.53-2.75,0.23-5.58-0.85-8.16
		L21.58,20.69z"/>
	<path class="st3" d="M17.47,0.25C7.95,0.25,0.25,7.96,0.25,17.5c0,9.54,7.7,17.25,17.22,17.25c9.52,0,17.28-7.71,17.28-17.25
		C34.75,7.96,26.99,0.25,17.47,0.25z M23.55,29.6c-0.11,0.57-0.61,0.99-1.19,0.99h-9.72c-0.58,0-1.08-0.42-1.19-0.99
		c-0.56-2.93-0.25-5.93,0.91-8.67l0.25-0.59c1.37-3.28,2.07-6.74,2.07-10.29V8.91L14.39,7.4h-0.36c-0.22,0-0.41-0.16-0.44-0.38
		l-0.29-2.1c-0.02-0.13,0.02-0.26,0.11-0.35c0.08-0.1,0.21-0.15,0.33-0.15h7.51c0.13,0,0.25,0.06,0.33,0.15
		c0.08,0.1,0.12,0.23,0.11,0.35l-0.29,2.1c-0.03,0.22-0.22,0.38-0.44,0.38h-0.36l-0.28,1.51v1.14c0,3.55,0.7,7.02,2.07,10.29
		l0.25,0.59C23.8,23.67,24.11,26.67,23.55,29.6z"/>
</g>
</svg>
